<?xml version="1.0" encoding="utf-8"?><svg viewBox="0 0 149 72" xmlns="http://www.w3.org/2000/svg" xmlns:xlink="http://www.w3.org/1999/xlink"><style>:root>svg{display:none}:root>svg:target{display:block}</style><svg viewBox="0 0 21 18" id="icon-cart" xmlns="http://www.w3.org/2000/svg"><path d="M20.188 6.857h-3.55L13.188.381C12.985 0 12.58-.095 12.174.095s-.507.572-.304.953l3.145 5.81H5.783l3.145-5.81c.202-.381 0-.762-.305-.953-.406-.19-.811 0-1.014.286l-3.45 6.476H.812c-.406 0-.812.286-.812.762 0 .381.304.762.812.762h.202l.914 2.857c-.203.095-.305.286-.305.572 0 .38.305.666.71.666L4.058 18h12.884l1.725-5.524c.405 0 .71-.286.71-.667 0-.19-.102-.476-.304-.57l.912-2.858h.203c.406 0 .812-.286.812-.762 0-.476-.406-.762-.812-.762zm-4.565 9.62H5.073L3.854 12.38h13.087l-1.319 4.095zm1.623-5.525H3.348l-.812-2.666h15.522l-.812 2.666z"/></svg><svg viewBox="0 0 15 29" id="icon-fb" xmlns="http://www.w3.org/2000/svg"><path d="M11.704 5.255c.998 0 1.997 0 2.697-.302.4-.804.599-1.91.599-3.017-.2 0-.1-.302-.2-.402 0-.201-.3-.201-.3-.403-.3-.2-.499-.402-.699-.603-.699-.201-1.398-.302-2.197-.503-.8 0-1.898-.1-2.598.1-2.597 0-3.995 1.107-5.294 2.414 0 .101 0 .202-.1.202-.6 1.609-.1 3.62-.2 5.632.1.402.1 1.005.2 1.408-.999.301-2.198.402-3.396.502-.3.302-.2 1.107-.2 1.71.1.603.3 1.106.4 1.61.2.2.599.402.799.502.1 0 .1.1.1.1.5.302 1.498 0 2.297.101-.1 2.012.3 3.923 0 5.733 0 .302.3.402.2.804 0 1.006-.1 2.012.2 2.716-.3.503-.5 1.006-.4 1.81.1 0 .1.201.1.302-.1.503.6.2.5.704.2.503-.4.2-.4.503v.905c.5.302 1.498.2 2.297.2.9-.401 2.198-.502 2.798-1.206.499.201.899 0 1.198-.201 0-.302.3-.302.2-.704 0-.302-.2-.503-.1-.905V22.05c-.2-2.313 0-4.928-.3-7.24.9-.101 1.898-.101 2.598-.403.4-.503.4-1.207.5-1.911.199-.201.199-.603.199-1.006.2-.2.1-.704.1-1.106-.1-.603-.2-1.307-.8-1.408-.898-.201-1.997.603-2.996.302 0-1.107-.3-2.313 0-3.42.799-.2 1.498-.402 2.198-.603zm-3.796 4.827c.1.302.3.503.4.704.099 0 .199 0 .199.1 1.199.101 2.198-.1 3.097-.3 0 1.005-.3 1.709-.5 2.513-.7 0-1.498.302-1.998.202-.3.2-.4.502-.6.704 0 .402.1.502 0 .804-.199.1-.099.604-.199.805v1.508c.1.302-.1.302-.1.503v3.52c-.1.302.1.302.1.503v3.017c.1.302-.1.805.1.905-.1.403-.4 0-.8.1-.499.101-.898.403-1.498.403.1-.402.3-.603.3-1.106 0-.402-.4-.302-.5-.503.2-.603.6-1.106.7-1.81.2-.503.7-1.308.3-1.81-.5-.101-.5.301-.8.402 0 .1 0 .2-.1.2 0 .101 0 .202-.1.202 0 .1-.2.1 0 0 0-.1 0-.201.1-.201 0-.1 0-.201.1-.201v-.302c.4-.603.7-1.207.8-2.011.2-.302.3-.704.4-1.006.199-.302.299-.905.1-1.207-.5 0-.8.302-.9.704-.3-.201.2-.402.1-.704.1-.201.2-.603.3-.805.2-.402.599-1.307 0-1.609-.4 0-.6.201-.7.503-.2.201-.4.402-.5.704-.399-.1-.099-.704-.199-1.106-.1-.503.1-.905 0-1.207-.6-.805-1.998-.1-3.196-.302-.1-.301-.2-1.005-.1-1.207.999-.1 2.497.202 3.196-.2 0-.101 0-.202.1-.202.1-.704-.3-1.006-.5-1.408.2-.804 0-2.011.1-3.017.2-.1.3-.402.5-.603.1-1.006.7-1.509.7-2.515-.3 0-.6-.1-.6.201-.3-.1-.4.503-.5.202-.1-.503.2-.604.3-1.006.6-.402 1.199-.805 1.898-1.207 1.698-.201 4.595-.402 6.094.201.1.604-.3.905-.2 1.509h-1.499c-1.098.2-1.997.704-2.996 1.005-.2.101-.3.302-.5.403 0 .402-.2.603-.3 1.005-.3 1.408-.1 2.615-.1 4.023z"/></svg><svg viewBox="0 0 22 22" id="icon-insta" xmlns="http://www.w3.org/2000/svg"><path d="M22 12.585c0-2.377-.302-4.755-.302-7.033 0-.793-.1-1.486-.201-2.278-.1-.298-.1-.694-.202-1.09-.302-.198-.2-.594-.503-.792-.402-.199-1.208-.1-1.71-.199-.705 0-1.31-.099-1.913-.198-1.913-.099-4.026-.099-6.04-.099C9.118.896 7.105.797 5.394.5H3.178c-.1 0-.1.1-.201.1-.604 0-1.107.197-1.61.296-.202.1-.403.198-.705.297-.1.199-.503.1-.604.397-.201.198.201.495 0 .594v.891c.201.1 0 .595.1.793v.99c0 1.288.101 2.378.101 3.666.504 2.773.403 6.438.101 9.31.201.595.403 1.09.503 1.685.302.495.302 1.09.705 1.486.503.198 1.208.198 1.912.198.403.099.705.297 1.107.297 2.819-.198 5.536-.198 8.455-.198 2.718.198 5.838.198 8.354-.198.201-.1.1-.495.201-.793-.1-.396.202-.396.202-.792.201-2.08.201-4.458.201-6.934zM8.915 6.443a9.485 9.485 0 012.416-.297c.705.1 1.308.297 1.912.496.101.198-.2.495.202.693.1 0 .1 0 .201.099.403 0 .805.198 1.107.396.503.1.503.495 1.107.396-.1.199-.1.496-.1.793.302 1.188.503 2.773.302 4.26-.202.197-.202.395-.302.693-.302.297-.504.792-.806 1.09-.1.197-.301.395-.503.495-.1.198-.201.495-.503.495-.302.198-.604 0-.805-.1-.403.199-.906.298-1.208.595l-2.416-.297c-.201-.1-.503-.297-.805-.297a2.198 2.198 0 00-.805-.495c-.1-.1-.302-.1-.503-.199-.202 0-.202-.198-.504-.198-.1-.396-.402-.594-.503-1.09-.201-.297-.302-.792-.503-1.188 0-1.387.1-2.675.402-3.764.302-.594.806-1.09 1.108-1.684.2 0 .402-.1.402-.297.302.099.403-.1.705-.1.201 0 .201-.296.402-.495zM7.205 3.77c-.101-.297-.101-.694-.101-1.09 0-.297.302-.297.302-.495 0-.1-.101-.1-.202-.1.101-.098.705-.098.806 0 .1.496-.403.496-.504.694 0 .198.302 0 .504.1 0 .89-.101 1.485 0 2.179h-.504c0 .198.202.198.504.198-.101.297.1.396.1.594-.201.198-.704 0-1.107.1 0-.595.302-1.388.201-2.18zM6.5 2.184c.1 0 .1 0 .201.099.201.297 0 .693-.1.892-.202-.199 0-.694-.101-.991zM6.7 3.967c-.1-.1-.201-.198-.201-.495.201.099.201.297.201.495zm0 1.387c-.1.099-.1 0-.1-.198.1-.1.1.099.1.198zm-.201.198c.201 0 .1.198.201.198 0 .198-.302.198-.403.1.101-.1.202-.2.202-.298zM4.185 4.363c0-.099 0-.198-.1-.198-.102-.693.1-1.387 0-1.981.301-.198.804 0 1.106-.1v1.09c-.1.1-.201.1-.402.1-.101.297.302.099.402.297 0 .891-.1 1.783.202 2.377-.604-.099-.906.1-1.41.1.101-.595 0-1.388.504-1.586 0-.099-.302 0-.302-.099zm-.503 0c-.202 0-.202-.495-.101-.594.302 0 .201.495.1.594zm-.202.99c.1-.296 0-.296.1-.693.202 0 .202.793-.1.694zm.202-2.08c-.302.1-.302-.297-.202-.396.302 0 .403.298.202.397zm0-1.089c0 .198-.101.198-.101.297-.201 0-.1-.198-.201-.198.1-.099.2-.099.302-.099zM3.48 5.849c.1 0 .1.297-.1.198.1 0 .1-.099.1-.198zm-.704-3.665a.202.202 0 01-.403 0h.403zm-1.007.099c0 .198-.302.198-.402.396-.202-.198.1-.495.402-.396zm-.402.693c.2-.198.503-.396.704-.594 0-.099.1-.099.1-.198h.202c.1.396-.302.297-.302.495 0 .1-.1.1-.1.198 0 .298.1.595.1.99-.302 0-.302.298-.604.199 0-.396-.201-.594-.1-1.09zm.1 3.27V4.66c.202-.198.403-.396.604-.495.302.495.201 1.387.503 1.882-.402.1-.805.1-1.107.198zM19.786 17.24c-.101.99-.202 1.98-.403 2.773-2.919.1-6.039 0-8.958.198-.201 0-.302 0-.201-.198-.302 0-.302.198-.503.198.2-.297.402-.891.2-1.287-.804 0-.804.792-1.106 1.287-.705-.099-1.107.1-1.812.1.201-.694.705-.991.906-1.685-.403-.495-1.007.1-1.208.496-.201.495-.604.792-.805 1.287H4.889c.202-.495.504-.891.806-1.386.2-.496.603-.694.704-1.387-.201-.297-.402 0-.704 0-.101.198-.302.297-.403.495-.201.396-.503.693-.705 1.09-.2.198-.302 0-.503.198-.402.297-.604.693-1.006.99-.202-.099 0-.396.2-.396 0-.198-.1-.495.102-.594.1-.396.2-.594.402-.892.1-.693.503-1.188.705-1.882-.604.1-.705.595-1.007.99-.201.397-.503.793-.704 1.289-.202-.1 0-.595-.101-.793.1-.594.302-1.09.403-1.684.1-.198.2-.495.2-.792.202-.199 0-.595-.1-.793-.201 0-.402.1-.503.297-.201 0-.201.496-.302.297 0-2.575-.503-4.754-.503-7.33 0-.297-.201-.396-.201-.693 1.61 0 3.12.099 4.83.198-.1.1-.2.297-.301.396-.1.1-.201.198-.403.297-.604 1.684-1.006 3.963-.604 6.142.202.594.604.99 1.007 1.387.906.495 1.61 1.09 2.516 1.684 1.711.396 3.825.396 5.536 0 .201-.1.503-.198.704-.396 1.41-1.19 2.819-2.477 3.02-4.854V10.9c-.201-1.585-.705-2.873-1.711-3.566.302-.198 1.107 0 1.711.099h.705c.402 0 .905-.1 1.409 0 .1.198.1.495.2.792-.1 1.684-.2 3.27-.2 5.052.1.496.1.99.2 1.387-.2.792-.301 1.684-.502 2.576zm.402-11.095c-.604-.099-1.208-.297-1.912-.396.1-.297.805 0 1.006-.198.403-.198.302-.892.302-1.486 0-.297.101-.594.101-1.09-.403-.99-1.812-.396-2.919-.495-.201.694-.503 1.783-.302 2.675.201.495 1.007.297 1.51.495-.1.297-.705.099-1.007.099-.302-.099-.704-.1-1.006-.198-2.315.099-4.328 0-6.542.198.1-1.189.1-2.476-.101-3.566h3.12c-.302.396-.906.495-1.308.792-.403.199-.906.496-1.108.892.202.099.504-.198.806-.396.402-.1.503-.397.805-.496.403-.396 1.107-.594 1.711-.891.403 0 .705 0 1.006.099 1.309 0 2.517.099 3.825.099.604.1 1.51.1 2.013.297l.302.892c-.1.99-.302 1.783-.302 2.674zM14.25 2.481c.1-.099 0-.099 0 0zm0 0c-.503.198-1.007.297-1.41.694.504-.199 1.108-.298 1.41-.694zm1.107.594c.1-.099 0-.099 0 0zm-1.812.892c.705-.198 1.208-.594 1.711-.892-.402 0-.604.298-1.006.397-.1.198-.503.198-.705.495zm-.704-.792c-.1 0 .1.099 0 0zm-.604.594c.1-.1 0-.1 0 0zm-.1.099c.1 0 .1-.1 0 0 0-.1 0-.1 0 0zm-.101 0c.1 0 .1 0 0 0 0-.1 0 0 0 0zm-.806.594c.302-.099.604-.297.806-.594-.302.198-.604.396-.806.594zm2.315.99c.504 0 .705-.395 1.208-.494.302-.298.805-.397 1.007-.793-.604 0-.806.396-1.208.495-.302.397-.805.496-1.007.793zm-2.315-.99c-.302 0 0 .297 0 0zm-.603.396c.1 0 .2 0 0 0 .1-.099 0 0 0 0zm2.918.595c-.201.099 0 .099 0 0zm-1.207 1.783c-.202-.198-.705-.198-1.007-.396-.705 0-1.208.099-1.711.198-.302.198-.604.297-.906.495-.302.198-.403.396-.805.495-.201.198-.403.496-.705.595 0 .198-.201.297-.302.396-.1.099-.1.297-.2.396 0 .1 0 .297-.102.297.101 1.486.302 2.873.705 4.16.302.595 1.006.793 1.41 1.288.603.298 1.308.397 2.113.496.302-.1.604-.1.906-.1 1.207-.197 2.113-.693 2.818-1.386.1-.297.302-.495.503-.694-.302-.693.302-1.09.503-1.584 0-1.288-.201-2.477-.604-3.368-.302-.595-.905-.793-1.409-1.09-.1 0-.201 0-.201-.1-.201-.098-.705-.197-1.006-.098zm-3.423 4.358c-.1-.099-.1-.198-.2-.396.301-.099.2.198.2.396zm.101.298c0-.1.1 0 0 0 0 .198 0 .099 0 0zm.403-2.08c0-.1.1 0 0 0 .1.098 0 .098 0 0zm1.71-2.08c-.2.296 0 .593.101.792-.302 0-.604-.793-.1-.793zm.403 3.862c-.1 0 0 0 0 0 .101 0 0 .1 0 0zm.705 2.873c0-.1.1 0 .201 0 0 .099-.201.099-.201 0zm2.214-2.476c-.201-.1-.1.198-.402.198.1-.198.1-.297.2-.496.202 0 .303.1.202.298zm-1.107-3.765c.201.1.403.199.604.397.1.198.201.396.402.495.101.792.202 1.486.202 2.377-.302.1-.403.297-.705.396-.805 0-1.409-.198-1.912-.495-.201-.297-.403-.495-.503-.792v-1.09c.201-.198.302-.396.503-.594.201-.1.503-.198.503-.595 0-.099-.1-.099-.1-.198.2 0 .2.198.402.198s.302-.198.604-.099z"/></svg><svg viewBox="0 0 18 18" id="icon-search" xmlns="http://www.w3.org/2000/svg"><path d="M17.7 16.06l-3.48-3.48a7.63 7.63 0 001.53-4.7c0-4.4-3.48-7.88-7.88-7.88A7.81 7.81 0 000 7.88c0 4.4 3.48 7.87 7.88 7.87 1.73 0 3.37-.61 4.7-1.53l3.48 3.47c.2.2.4.31.82.31.6 0 1.12-.51 1.12-1.13 0-.2-.1-.5-.3-.81zM2.24 7.88a5.67 5.67 0 015.63-5.63 5.67 5.67 0 015.62 5.63 5.67 5.67 0 01-5.63 5.62 5.67 5.67 0 01-5.62-5.63z"/></svg><svg viewBox="0 0 24 20" id="icon-twitter" xmlns="http://www.w3.org/2000/svg"><path d="M22.957 4.242c-.194-.404-.874-.303-1.36-.404h-1.07c.098-.404.292-.606.487-1.01.097-.404.291-.707.194-1.313L21.5.91c.097-.1.194-.505.097-.707C21.5 0 21.305 0 21.014 0c-.097 0-.195.101-.195.101-.388.404-.777 1.01-1.263 1.414h-.097c-.097 0 0 0-.097.101s-.292.202-.389.202c-.291.202-.486.404-.874.505-.486-.202-1.166-.303-1.847-.404-1.166.101-2.234.202-2.915.707-.874.303-1.457 1.01-2.04 1.616 0 .303-.292.404-.389.707 0 0 0 .102-.097.102 0 .202-.097.303-.097.505 0 .1.194.404 0 .505-.777-.101-1.458-.606-2.04-1.01-.68-.405-1.458-.607-2.041-1.112-.68-.303-1.263-.808-1.75-1.313-.194-.303-.485-.505-.68-.909-.388-.202-.194-.909-.68-.909-.291 0-.291.202-.388.404-.097.202-.389.202-.389.505 0 0 0 .101-.097.101-.195 1.111-.486 2.02-.486 3.334.097.404.291.707.583 1.01-.389.1-.68.202-.875.505-.097 1.11.39 1.616.68 2.323.098.404.39.707.584 1.01 0 .202.194.303.291.404 0 .101.097.101.097.202s.292.202.098.202c-.39.101-.972.101-1.264.404a2.154 2.154 0 000 1.111c0 .202.292.303.292.505.486.404 1.069.707 1.555 1.111.583.202 1.166.303 1.846.404-.097.304-.292.607-.583.708-.778.404-1.75.505-2.624.707-.583 0-.972.202-1.555.202-.291.1-.874.1-1.068.202l-.195.202c-.097.404.097.707.389.909 0 .303.194.303.389.404.097.202.291.303.388.404.486.505 1.263.808 1.847 1.11.777.203 1.554.405 2.429.506.874.101 1.846.101 2.72.202h.972c.486.101 1.166.101 1.846.101.097-.101.292-.101.486-.101.486-.303 1.166-.404 1.555-.707.583-.202.972-.606 1.555-.91.874-.807 1.846-1.312 2.429-2.423.194-.202.389-.404.389-.707.291-.202.388-.505.583-.708.388-.404.68-.909.971-1.414.292-.505.583-1.11.875-1.616 0-.404.291-.505.291-.909.195-.202.195-.707.389-.909 0-.303 0-.404.097-.606 0-1.313 0-2.424-.291-3.434.583-.202 1.166-.303 1.554-.607.778.304 1.263-.1 1.07-.707zm-3.304 4.04c-.194.91-.583 1.415-.971 2.021.097.404-.097.505-.097.91-.195.302-.292.706-.39 1.01-.193.302-.29.605-.485.908-.389.505-.777 1.111-1.166 1.617-.389.606-.875 1.01-1.263 1.515-.389.505-.875.909-1.36 1.313-.486.202-.875.404-1.264.707-.194.1-.486.202-.68.303-.194.1-.486.1-.68.303-1.069.1-2.235.202-3.498.1-.972-.1-2.04-.201-2.915-.403s-1.458-.707-2.235-1.01c.194-.202.583-.202.972-.202 0-.202.388 0 .388-.101.292.1.292-.101.486-.101.583-.202 1.166-.303 1.652-.606.291-.101.389-.404.68-.606 0-.202.097-.303.194-.404 0-.303.195-.404.098-.808.097-.202.291-.304.291-.708-.097-.1-.097-.303-.291-.404 0-.202-.39-.1-.39-.202-.29 0-.388 0-.582-.1-.194 0-.486.1-.486-.102-.777 0-1.263-.404-1.846-.707.389-.303.972-.404 1.263-.707.486-.1 1.069-.1 1.069-.707 0-.707-.777-.707-1.263-.808-.778-.707-1.166-1.717-1.75-2.525.195-.202.584-.202.68-.404.487.1.487-.303.681-.505 0-.505-.291-.606-.583-.808-.291-.202-.486-.505-.68-.707 0-.809 0-1.718.097-2.425.097 0 .097 0 .097.101.195.404.583.808.778 1.212.485.404.874.91 1.554 1.112.486.404 1.07.606 1.555 1.01.583.303 1.166.606 1.652.909.68.202 1.069.707 1.943.606l.583-.303c.292-.505-.097-1.111.097-1.616.292-.707.778-1.01 1.264-1.516.291-.202.583-.303.777-.505.291-.1.68-.202.972-.404.388 0 .68-.1.971-.1h1.264c.194.1.485.1.68.1.194.101.388.303.68.404.777.707 1.263 1.718 1.36 3.03 0 .304.097.708.097 1.314zm.292-5.656c-.097.303-.194.707-.583.808 0-.1-.097-.1-.097-.202 0-.202.194-.202.291-.303.097-.1.195-.303.389-.303.097 0 0-.1 0 0zM14.6 5.656c.194.102.291.304.485.405.098.202.292.303.584.404 0-.202.291 0 .388-.202.194 0 .194-.202.292-.303 0-.505-.098-1.01-.389-1.314-.68-.505-1.652 0-1.36 1.01z"/></svg><svg viewBox="0 0 149 72" id="logo-desktop" xmlns="http://www.w3.org/2000/svg"><path d="M144.16 31.1c-1.51 1.1-3.12 1.88-4.73 2.77 0-1.68-.1-3.46-.6-5.04.1-.3.1-.69.1-.98.4-2.96.7-7.01-2.02-9.08-.3-.3-1.2 0-1.91.3-.2-.2-.3-.3-.5-.4-.1-.2-.2-.5-.2-.7 0-.1-.2-.2-.4-.2.3-.39.3-.78-.41-1.08-.4-.2-.8-.3-1.1-.4-.1-.09-.1-.09-.2-.09-.91-.3-1.92-.5-2.93-.7.1-.29.4-.78.6-.98.1-.2.3-.3.4-.4l.2-.2s.11 0 .11-.09l.1-.1c.4-.3.8-.89.2-1.18-.6-.3-1.5-.1-2.01.2a7.02 7.02 0 00-2.12 2.36c-2-.2-4.02-.2-6.14-.1.1-.1.1-.2.1-.3.2-.58-.9-.48-1.2-.48l-4.73.59c1.4-3.75 3.12-8.5 1-12.14C114.57.6 111.85.1 109.63 0c-2.41-.1-4.93.5-7.05 1.58-4.83 2.57-7.14 7.6-8.25 12.93-.5-.69-2.31-.4-2.62.5-.1.3-.2.59-.3.98-.2.2-.3.4-.3.6v.2h-.2c0-.1 0-.2.1-.3.1-.1.2-.2.3-.4.6-2.27 1.2-4.54 1.91-6.71.3-.8-2.51-.4-2.81.4-.4 1.18-.81 2.36-1.11 3.55-.2.1-.4.2-.4.3v.1c-.1-.1-.3-.2-.5-.2v-1c0-.39-2.83 0-2.83.8v1.58c-.2.1-.3.2-.5.3l-.2.19c-.1.1-.1.2-.1.2v.1l-.1.1c-.1.1-.2.3 0 .49.2.2.5.2.7.2h.1v.49h-.7l-.4-.1c0-.4-.7-.5-1.41-.3v-.1c-.1-.59-.2-1.18-.2-1.77.2-.1.5-.2.7-.3.2-.1.3-.2.3-.4v-.19c0-.2-.4-.2-.5-.2h-.6c-.1-1.28-.1-2.56-.1-3.85 0-.79-2.83-.3-2.83.8 0 1.77 0 3.55.2 5.22h-.3v-1.48c0-.98-1.3-1.18-2.11-.79.3-.3.5-.59.4-.98-.4-1.38-.8-2.77-1-4.25-.2-1.38-3.02-.69-2.82.8.2 1.47.6 2.85 1 4.24.2.79 1.31.89 2.12.5-.2.19-.4.48-.4.78v.6c-.3-.3-.5-.3-.91-.3-1.1 0-1.71.88-1.41 1.48-.2 0-.3-.1-.5-.1a11.8 11.8 0 01-.7-3.75c0-.9-1.32-.99-2.12-.7v-.2c-.4-.78-.6-1.67-.8-2.46-.3-1.28-3.23-.6-2.83.8.2.58.3 1.27.5 1.87h-.1c-.3.1-.6.2-.9.4-.8.09-1.81.58-1.81 1.18.1.49.1.98.2 1.38-.4.1-1 .1-1.51.2-.3-.8-.5-1.58-.6-2.37-.1-.9-1.61-.9-2.32-.3a24.4 24.4 0 00-3.12-5.73c-2.72-3.35-7.25-4.54-11.37-3.65a9.44 9.44 0 00-5.04 2.57c-1.2 1.38-1.4 3.06-1.2 4.74.2 1.48.6 3.95 1.6 5.92-.4 0-.7 0-.9.1-.3.1-.6.2-.8.4-1.92 0-3.93 0-5.84-.1-4.23-.2-8.36-.9-12.59-.7-.9 0-1.5.7-1.5 1.29a4.23 4.23 0 00-2.12 2.27c-1.71-1.09-3.52-2.27-5.34-3.16-.7-.4-3.32.69-2.31 1.18 1.81.9 3.62 2.08 5.33 3.16.5.3 1.31.1 1.81-.1 0 0 .1 0 .2-.1a9.5 9.5 0 00.2 4.45c0 .1.1.2.2.3v1.18c-.4.2-.7.5-.8.79-.2 1.38-.3 2.76-.3 4.14-.3.2-.5.5-.5.8-.2 3.25 0 6.6.5 9.86.2 2.67.7 5.24 1.21 7.9.1.4.1.8.2 1.28a8.04 8.04 0 00-.2 3.46c-.9.2-1.71.89-1.2 1.58a8.03 8.03 0 002.6 2.56c-.6-.1-1.4.1-1.9.6-.8.79-1.71 1.48-2.52 2.27-.4.4-.3.89.3 1.08.7.2 1.51-.1 2.02-.49.8-.79 1.7-1.48 2.51-2.27.2-.2.3-.5.2-.7 3.22 1.69 7.25 1.3 11.18.9-.9 1.58-1.51 3.25-2.22 4.93-.3.7 2.52.4 2.82-.4.6-1.67 1.2-3.25 2.11-4.83 3.73.1 7.55.1 11.28.1.1.2.4.3.7.3 3.33.3 6.55-.1 9.77-.7 4.83-.2 9.66-.49 14.5-.79 7.54-.2 15.2-.3 22.74-.3l.3.3c.3.3.61.3 1.01.3h.2c.7 0 1.41.1 2.12.1.2 0 .3.1.6 0 .8.1 1.61.1 2.32.2.2.2.5.3.8.4 3.83.29 7.65.49 11.48.68.1.2.5.3.8.3 7.15.1 15.4 2.76 21.75-1.68.5-.4.3-.89-.3-.99h-.3a49.86 49.86 0 002.91-8.49c.4-.2.6-.49.6-.88 0-1.19.2-2.37.4-3.56.21-.89.31-1.77.41-2.66.4-2.17.8-4.35 1-6.42a43.92 43.92 0 006.65-3.75c1.61-1.18-.8-1.88-1.81-1.18zM88.39 16.3l-.1.1c.1-.3.1-.6.2-.9h.1c0 .2-.1.5-.2.8z"/><path d="M63.73 12.55c.1.2.6.2.8.2.4 0 .81-.1 1.11-.2.4-.2 1.1-.6.8-1.09-.4-.6-.6-1.18-1-1.78-.1-.2-.6-.2-.8-.2-.4 0-.81.1-1.11.2-.4.2-1.11.6-.8 1.09.3.6.6 1.28 1 1.78zm-42.88-1.68c.2.6 1.1.6 1.6.5.51-.1 1.42-.6 1.21-1.3-.2-.58-.4-1.27-.9-1.77s-1.31-.4-1.91-.2c-.4.2-1.21.8-.7 1.29.4.6.5.89.7 1.48zm10.06 2.96c.8 0 3.12-1.28 1.21-1.28-.9 0-3.12 1.28-1.2 1.28zm92.51-1.58c.3.1.7 0 1.11-.1.3-.1.7-.2.9-.5.4-.39.71-.68 1.01-1.18.1-.2.2-.4 0-.59-.2-.2-.5-.2-.8-.3-.4 0-.8.1-1.11.2-.3.1-.6.3-.8.6-.1.2-.2.39-.4.49l-.2.2c-.21.2-.31.4-.31.59.1.4.3.5.6.6zm13.39 5.33c.6-.1 1.41-.2 1.91-.69 1.31-1.09 2.62-2.17 3.63-3.55.3-.4-1-.2-1.11-.2-.5.1-1.3.3-1.71.7-.9 1.27-2.22 2.26-3.42 3.35-.5.4.4.4.7.4zm10.87 26.75h-4.93c-.6 0-1.51.5-1.61 1.09-.1.69.8.89 1.3.89h4.94c.6 0 1.51-.5 1.61-1.09.1-.69-.7-.89-1.3-.89zm-90.29 15.8c-.5.1-1.41.3-1.61.79-.5 1.28-1.01 2.56-1.41 3.85-.2.69 2.61.3 2.82-.5.4-1.28.8-2.56 1.4-3.85.2-.5-1-.3-1.2-.3zm4.63 2.57c-.3 0-.7.1-1 .2-.31.09-.71.19-1.02.39-.1.1-.3.2-.3.4v.29c0 .1-.1.2-.1.3-.1.1-.1.19 0 .29.2.1.5.1.7.1.4 0 .71-.1 1.11-.3.2-.1.6-.2.8-.4.11-.2.21-.29.31-.49V63c0-.3-.4-.3-.5-.3zm55.46 3.65c-.4-.7-3.02.3-2.81.79.8 1.57 1.9 3.06 2.91 4.63.4.7 3.02-.39 2.82-.78-1-1.58-2.11-3.06-2.92-4.64zm4.03-2.37c-.3-.6-1.1-.6-1.61-.4-.4.1-1.51.6-1.2 1.19.4.79.8 1.58 1.2 2.27.3.59 1.1.59 1.61.4.4-.1 1.51-.6 1.2-1.2-.4-.68-.8-1.47-1.2-2.26zM5.75 42.65c-1.51.4-3.02.6-4.53 1-.5.09-1.31.58-1.21 1.27.2.7 1.1.7 1.71.6 1.51-.4 3.02-.6 4.53-.99.5-.1 1.3-.7 1.2-1.28-.3-.7-1.2-.7-1.7-.6z"/><path d="M44.1 39.7c-.1-2.67-.5-5.34-.5-8 0-2.18.4-4.45-.4-6.52 0-.2.1-.5.1-.69.2-1.09-3.33-.5-3.83.5-.3.29-.5.59-.4.98 0 .1.1.2.1.3a99.61 99.61 0 01-2.62 9.38c-.4 1.18-.9 2.36-1.3 3.55-.61-1.09-1.22-2.17-1.72-3.36-1.4-3.45-2.62-6.9-4.33-10.17.2-1.48-3.22-1.38-3.92 0-.81 1.68-.7 3.36-.4 5.24.3 2.07.4 4.04.4 6.12 0 3.95.4 7.9.4 11.84-.4.4-.5.9-.1 1.38l.6.6c.9.69 3.52.1 3.52-1.29 0-4.14-.3-8.19-.4-12.34v-1.18c.1.1.1.3.2.4.6 1.57 1.31 3.15 2.22 4.63.9 1.48 1.3 3.06 1.81 4.64-.2.2-.3.5-.2.7 0 .2.1.3.3.39.6.6 1.91.3 2.52 0 .3-.1.6-.3.8-.4.3-.2.9-.69.7-1.18 0-.1-.1-.2-.1-.3.51-1.28.71-2.56 1.01-3.94.3-1.39.8-2.77 1.31-4.15.1.6.1 1.28.2 1.88.2 2.56 0 5.03 0 7.6 0 .88.1 1.58.2 2.46.1.3.4 1.78.3 1.88-.6.6-.4 1.28.4 1.38.91.2 2.12-.1 2.83-.69 1.2-1.09.6-2.86.4-4.24-.6-2.37-.1-5.04-.1-7.4zm8.46.68c-.1-1.97-.81-3.85-.81-5.82 0-2.27.2-4.54-.2-6.81-.1-.7-4.13.1-4.03 1.08.3 2.08.2 4.25.2 6.32 0 2.08.5 3.85.7 5.93.31 2.07-.1 4.14.1 6.21.11 1 .81 2.77.11 3.56-.4.5 1.51.3 1.61.3.8-.1 1.81-.4 2.32-1 .7-.78.2-2.36.1-3.35-.2-2.27 0-4.34-.1-6.42zm16.6-3.35c-2.1-2.77-5.93-.8-8.65-1.58-1.41-.4-1.41-2.27-1.41-3.36 0-1.38-.1-2.76-.3-4.14-.1-1.09 0-2.08.8-2.87.1-.1.9-.3.8-.3.41-.1.71-.1 1.11-.1 1.62-.09 4.74.2 4.13 2.48-.3.98 3.63.4 3.93-.6 1.2-4.54-7.45-3.65-9.87-3.06-2.21.6-4.73 1.88-4.83 4.35-.1 1.18.3 2.37.3 3.55.1 1.38-.2 2.76.3 4.15 1.11 2.96 5.64 1.58 7.86 1.77 3.92.3 2.71 5.43 2.81 7.9 0 1.28 1.21 3.46.2 4.44-.6.7-2 .7-2.81.8-.8.1-2.22.29-2.82-.5-1-1.38.1-3.75-.1-5.43-.2-.99-4.23-.1-4.03.99.3 2.66-1.4 6.12 2.42 6.61 2.51.3 5.23-.2 7.65-.89 1.2-.4 2.31-.98 3.32-1.77 1-.9.7-2.37.4-3.56-.7-2.96.7-6.32-1.2-8.88zm17.62-.2c-.1-3.75-.7-7.5-.7-11.25 0-1.98-4.03-1.29-4.03.3 0 3.55.5 7.1.7 10.75v.2c-2 0-3.92.2-5.93.2.2-4.64-.6-9.18-.4-13.82 0-.6-3.93-.1-4.03 1.08-.2 4.45.6 8.89.5 13.33l-.3 6.42c0 1.08.2 2.17.3 3.25.1 1 .5 2.37.2 3.26-.2.8 3.62.3 3.93-.69.5-1.78-.2-4.05-.4-5.82-.2-1.68 0-3.46.1-5.24 2-.1 4.12-.3 6.14 0l.3 4.15c.1 1.18.2 2.27.2 3.46 0 .98.1 2.46-.2 3.45-.8 2.07 3.22 1.88 3.82.4.7-1.88.5-4.15.4-6.13-.2-2.36-.6-4.83-.6-7.3zm17.12 4.54c-.91-2.76-2.42-5.13-3.63-7.8 1-1.97 2.01-3.85 3.02-5.82.8-1.78 1.51-3.85 3.12-5.04.6-.49.6-.88-.3-.98-.9-.1-2.11.2-2.82.69a11.17 11.17 0 00-3.22 4.24c-1 2.08-1.91 4.05-3.02 6.02-.1.1-.2.3-.2.4-.5.3-.8.79-.6 1.28-.81 1.58-1.62 3.06-2.52 4.64-.3-5.53-1.01-11.05-1.21-16.58 0-1.29-4.03-.5-4.03 1.08.2 6.82 1.21 13.63 1.31 20.54v.1c-.3.3-.2.49.1.59 0 1.77-.1 3.45-.2 5.23-.5.79.5 1.09 1.1 1.09h.1c.71 0 2.63-.4 2.73-1.39.2-2.07.3-4.14.2-6.22a32.57 32.57 0 004.12-5.62 26.2 26.2 0 012.02 4.54c.9 2.76 2.31 5.23 3.22 8 .5 1.77 4.53.69 4.03-1.1-.91-2.66-2.32-5.22-3.33-7.89zm23.95-4.64c-.2-.79-1.4-.89-2.31-.79v-.99c-.1-2.66-.2-5.33-.4-8-.2-2.46-1.62-3.35-4.03-3.25-2.42.1-5.34.5-7.65 1.38a7.06 7.06 0 00-4.63 5.63c-.6 2.96.2 6.22.4 9.18.2 3.46.1 7 .1 10.46 0 .6 4.03 0 4.03-1.08v-8.3c0-.78-.1-1.57-.1-2.46 1.4-.6 3.72 0 5.13.1 1.1.1 2.22-.2 3.32-.3 0 2.27.1 4.64.2 6.91 0 1.19.5 3.55-.4 4.54-.4.5 1.51.3 1.61.3.8-.1 1.81-.4 2.32-1.09 1-1.08.5-3.75.4-5.13-.1-1.88-.1-3.85-.1-5.73 1 .2 2.31-.59 2.11-1.38zm-14.9-.2l-.3-3.75c-.2-2.37.1-5.52 2.32-7 .6-.4 1.7-.3 2.41-.4 1.01-.2 2.02-.4 2.92.2 1.21.79.9 3.65.9 4.83 0 1.98.21 3.95.31 6.03-.6.1-1.1.1-1.71.1-2.32-.1-4.63-.4-6.85 0zM49.13 24.98c.5-.1 1.11-.2 1.51-.49.1-.1.2-.1.3-.2.5-.3 1.01-.79.7-1.38-.5-1.08-.4-2.27-.4-3.35 0-1-1-1.29-1.8-1.19-.71.1-2.22.6-2.22 1.48 0 .99-.1 1.98.1 2.96 0 .1-.1.2-.1.4-.1.2 0 .4.1.59v.4c.1.2.2.39.4.49.4.3.91.3 1.41.3z" fill="#fff"/></svg><svg viewBox="0 0 102 34" id="logo-footer" xmlns="http://www.w3.org/2000/svg"><path d="M19.22 21.38c-.1-2.68-.5-5.27-.5-7.95 0-2.2.4-4.38-.4-6.47 0-.2.1-.5.1-.7.2-.99-3.3-.5-3.8.5-.3.3-.5.6-.4 1 0 .1.1.2.1.3-.7 3.18-1.6 6.26-2.6 9.34-.4 1.2-.9 2.3-1.3 3.48-.6-1.09-1.2-2.18-1.6-3.38-1.4-3.38-2.6-6.86-4.3-10.14.2-1.5-3.2-1.4-3.9 0-.8 1.69-.7 3.38-.4 5.17.3 1.99.4 3.98.4 6.07 0 3.97.4 7.85.4 11.83-.4.4-.5.9-.1 1.4.2.2.4.4.6.5 1 .69 3.6.09 3.6-1.3 0-4.08-.3-8.16-.4-12.33v-1.2c.1.1.1.3.2.4.6 1.6 1.3 3.18 2.2 4.67.9 1.5 1.3 3.09 1.8 4.68-.2.2-.3.5-.2.7 0 .2.1.3.3.4.6.49 1.8.3 2.5 0 .3-.1.6-.3.8-.4.3-.2.9-.7.7-1.2 0-.1-.1-.2-.1-.3.5-1.29.7-2.58 1-3.88.3-1.39.8-2.78 1.3-4.07.1.6.1 1.2.2 1.89.2 2.58 0 5.07 0 7.55 0 .8.1 1.6.2 2.5.1.29.4 1.78.3 1.88-.8.5-.6 1.1.2 1.3.9.2 2.1-.1 2.8-.7 1.2-1.1.6-2.79.4-4.18-.5-2.39 0-4.97-.1-7.36zm8.4.7c-.1-2-.8-3.88-.8-5.87 0-2.29.2-4.57-.2-6.86-.1-.7-4.1.1-3.9 1 .3 2.08.2 4.17.2 6.36 0 1.99.5 3.88.7 5.86.3 2.1-.1 4.18.1 6.17.1 1 .8 2.69.1 3.58-.4.5 1.5.3 1.6.3.8-.1 1.8-.4 2.3-1 .7-.8.2-2.38.1-3.38-.3-1.99-.1-4.17-.2-6.16zm16.3-3.28c-2.1-2.79-5.9-.8-8.6-1.5-1.4-.4-1.4-2.28-1.4-3.38 0-1.39-.1-2.68-.3-4.07-.1-1.1 0-2.1.7-2.89.1-.1.9-.3.8-.3.4-.1.7-.1 1.1-.1 1.5-.1 4.6.2 4 2.49-.3 1 3.6.4 3.9-.6 1.2-4.57-7.3-3.68-9.7-3.08-2.2.6-4.6 1.79-4.8 4.38-.1 1.19.3 2.38.3 3.58.1 1.39-.2 2.78.3 4.07 1.1 2.99 5.5 1.6 7.8 1.7 3.8.3 2.7 5.46 2.7 7.85 0 1.3 1.2 3.38.2 4.48-.6.7-2 .7-2.8.8-.8.1-2.2.29-2.7-.5-1-1.4.1-3.79-.1-5.38-.1-.9-4.1-.1-3.9 1 .3 2.58-1.4 6.06 2.4 6.56 2.4.3 5.2-.2 7.5-.9a7.9 7.9 0 003.2-1.78c1-.9.7-2.3.4-3.48-.5-3.09.9-6.47-1-8.95zm17.4-.2c-.1-3.78-.7-7.46-.7-11.24 0-1.99-4-1.3-4 .3 0 3.58.5 7.16.7 10.74v.2c-1.9 0-3.9.2-5.9.2.2-4.58-.6-9.15-.4-13.83 0-.6-3.9-.1-3.9 1-.2 4.47.6 8.85.5 13.32l-.3 6.37c0 1.1.2 2.19.3 3.28.1 1 .5 2.29.2 3.28-.2.8 3.6.3 3.9-.7.5-1.79-.2-3.97-.4-5.76-.2-1.7 0-3.48.1-5.17 2-.1 4.1-.3 6.1 0l.3 4.07c.1 1.2.2 2.29.2 3.48 0 1 .1 2.49-.2 3.48-.8 2.1 3.1 1.9 3.7.4.7-1.89.5-4.17.4-6.16-.2-2.49-.6-4.88-.6-7.26zm16.9 4.37c-.9-2.78-2.4-5.17-3.6-7.75 1-1.9 2-3.88 2.9-5.87.8-1.8 1.4-3.78 3.1-5.07.6-.4.6-.9-.3-1-.9-.1-2.1.2-2.8.7-1.4 1.3-2.4 2.68-3.1 4.37-.9 2.1-1.9 4.08-2.9 6.07-.1.1-.1.3-.2.4-.5.3-.8.8-.6 1.3a66.9 66.9 0 01-2.5 4.57c-.3-5.47-1-11.04-1.2-16.51 0-1.3-4-.5-3.9 1 .2 6.85 1.2 13.62 1.3 20.48v.1c-.3.3-.2.5.1.6 0 1.78-.1 3.47-.2 5.26-.5.7.5 1.1 1.1 1.1h.1c.7 0 2.6-.3 2.7-1.4.2-2.08.3-4.17.2-6.26 1.6-1.69 2.9-3.58 4.1-5.57.8 1.5 1.5 2.99 2 4.58.9 2.68 2.3 5.27 3.1 7.95.5 1.8 4.5.7 3.9-1-1-2.78-2.4-5.26-3.3-8.05zm23.5-4.57c-.2-.8-1.4-.8-2.3-.8v-1c-.1-2.68-.2-5.36-.4-7.95-.2-2.48-1.6-3.28-4-3.18-2.4.1-5.2.5-7.5 1.4a6.94 6.94 0 00-4.6 5.66c-.5 2.98.2 6.17.4 9.15.2 3.48.1 6.96.1 10.44 0 .6 3.9 0 3.9-1v-8.25c0-.8-.1-1.59-.1-2.38 1.4-.6 3.7 0 5.1.1 1.1.1 2.2-.2 3.2-.3 0 2.29.1 4.57.2 6.86 0 1.2.5 3.48-.4 4.47-.4.5 1.5.3 1.6.3.8-.1 1.8-.4 2.3-1 .9-1.09.5-3.77.4-5.06-.1-1.9-.1-3.78-.1-5.67 1.1-.2 2.4-.9 2.2-1.8zm-14.6-.1l-.3-3.68c-.2-2.29.1-5.57 2.3-6.96.6-.4 1.7-.3 2.4-.4 1-.2 2-.4 2.8.2 1.2.8.9 3.68.9 4.87 0 2 .2 3.98.3 5.97-.6.1-1.1.1-1.7.1-2.3-.2-4.6-.6-6.7-.1zM24.22 6.66c.5-.1 1-.2 1.5-.5l.2-.2c.5-.3 1-.79.7-1.39-.5-1.09-.4-2.18-.4-3.38 0-1-1-1.19-1.8-1.19-.7.1-2.2.6-2.2 1.5 0 .99-.1 1.98.1 2.98 0 .1-.1.2-.1.4-.1.2 0 .4.1.59v.4c.1.2.2.4.4.5.6.3 1.1.3 1.5.3z"/></svg><svg viewBox="0 0 27 35" id="logo-htmlacademy" xmlns="http://www.w3.org/2000/svg"><path d="M13.6 0h-.1L0 1.4v24.7l13.5 8 13.4-8V1.4L13.6 0zM25 12.1L13.5 5.3v-.1h-.1l-.1-.1v.1L1.9 12.1v-9l11.5-1.2L25 3.1v9zM13.4 6.8l11.5 6.7-4.5 2.6-7.1-4.2v1.4l5.9 3.5-.9.5-5-3v1.4l3.8 2.3-.8.5-3-1.8v1.4l1.9 1.1-1.8 1.1L2 13.6l11.4-6.8zM1.9 15.1l11.4 6.8v1l-7.9-4.7v1.4l8 4.8v1.1l-8-4.7v1.4l8 4.8 8.1-4.9v-5.2l3.4-2v10l-11.5 6.9L1.9 25v-9.9z"/></svg><svg viewBox="0 0 86 35" id="logo-mobile" xmlns="http://www.w3.org/2000/svg"><path d="M4.55 26.32c0-3.5-.3-6.9-.4-10.4v-1c0 .1.1.2.1.4.5 1.4 1.1 2.7 1.8 3.9.7 1.2 1.1 2.6 1.5 3.9-.2.2-.3.4-.2.6 0 .2.1.2.2.3.5.5 1.5.2 2.1 0 .2-.1.5-.2.7-.4.3-.2.7-.6.6-1 0-.1 0-.2-.1-.2.4-1.1.6-2.2.8-3.3.2-1.2.7-2.3 1.1-3.5 0 .5.1 1 .1 1.6.2 2.1 0 4.3 0 6.4 0 .7 0 1.4.2 2.1.1.3.3 1.5.2 1.6-.5.5-.4 1.1.3 1.2.8.2 1.8-.1 2.3-.6 1-.9.5-2.4.3-3.6-.4-2 .1-4.2 0-6.2-.1-2.3-.4-4.5-.4-6.8 0-1.8.3-3.7-.3-5.5 0-.2.1-.4.1-.6.2-.9-2.8-.4-3.2.4-.3.2-.4.5-.3.8 0 .1.1.1.1.2-.6 2.7-1.3 5.3-2.2 7.9-.3 1-.7 2-1.1 3-.5-.9-1-1.9-1.4-2.8-1.2-2.9-2.2-5.8-3.6-8.6.2-1.3-2.7-1.2-3.3 0-.7 1.4-.6 2.9-.4 4.4.3 1.7.3 3.4.3 5.1 0 3.3.3 6.7.4 10-.3.3-.4.7-.1 1.2.1.2.3.3.5.5 1.2.7 3.3.2 3.3-1zm18.2-18.4c-.1-.6-3.4.1-3.3.9.3 1.8.2 3.6.1 5.4 0 1.7.4 3.3.6 5 .2 1.7-.1 3.5.1 5.2.1.8.6 2.3.1 3-.4.4 1.2.3 1.3.3.6-.1 1.5-.3 1.9-.9.6-.7.2-2 0-2.8-.3-1.7-.1-3.5-.2-5.3-.1-1.7-.6-3.3-.7-4.9.3-2 .4-3.9.1-5.9zm3.2 6.7c.9 2.5 4.6 1.3 6.6 1.5 3.2.2 2.3 4.6 2.3 6.6 0 1.1 1 2.9.2 3.8-.5.6-1.7.6-2.4.6-.7.1-1.9.3-2.3-.4-.8-1.2.1-3.2-.1-4.6-.1-.8-3.4-.1-3.3.9.3 2.2-1.2 5.2 2 5.6 2.1.2 4.4-.1 6.3-.8 1-.3 1.9-.8 2.7-1.5.9-.8.6-2 .4-3-.6-2.5.6-5.3-1-7.5-1.7-2.3-5-.7-7.2-1.3-1.2-.2-1.2-1.8-1.2-2.8 0-1.2-.1-2.3-.2-3.5-.1-.9 0-1.8.6-2.4.1-.1.7-.3.7-.3.3-.1.6-.1.9-.1 1.3-.1 3.9.2 3.4 2.1-.2.9 3 .4 3.3-.5 1-3.9-6.1-3.1-8.2-2.6-1.9.5-3.9 1.6-4 3.7-.1 1 .2 2 .3 3 0 1.2-.3 2.4.2 3.5zm14.4 1.9c-.1 1.8-.2 3.6-.2 5.4 0 .9.1 1.8.3 2.8.1.8.4 2 .2 2.8-.2.6 3 .2 3.3-.6.5-1.5-.2-3.4-.3-4.9-.1-1.5 0-2.9.1-4.4 1.7-.1 3.4-.2 5.1 0l.3 3.5c.1 1 .2 1.9.2 2.9 0 .9.1 2.1-.2 2.9-.7 1.7 2.7 1.6 3.1.3.6-1.6.4-3.5.3-5.2-.3-2.2-.6-4.2-.6-6.3-.1-3.2-.6-6.3-.6-9.5 0-1.7-3.3-1.1-3.3.3 0 3 .4 6 .6 9.1v.2c-1.6 0-3.3.1-4.9.2.2-3.9-.5-7.8-.4-11.7 0-.5-3.3-.1-3.3.9-.2 3.8.4 7.5.3 11.3zm14.1 5.3c-.3.3-.2.4 0 .5 0 1.5 0 2.9-.2 4.4-.4.6.4 1 .9 1h.1c.6 0 2.2-.3 2.3-1.1.2-1.8.2-3.5.2-5.3 1.3-1.4 2.4-3.1 3.4-4.7.6 1.2 1.2 2.5 1.7 3.9.7 2.3 1.9 4.4 2.6 6.8.5 1.5 3.8.6 3.3-.9-.7-2.3-1.9-4.5-2.6-6.8-.8-2.3-2-4.4-3-6.6.8-1.6 1.7-3.3 2.5-5 .7-1.5 1.2-3.2 2.6-4.3.5-.4.5-.8-.2-.8-.7-.1-1.7.2-2.3.6-1.3 1-2 2.2-2.7 3.6-.8 1.7-1.6 3.4-2.5 5.1-.1.1-.1.2-.2.4-.4.3-.7.6-.5 1.1-.7 1.3-1.3 2.6-2.1 3.9-.3-4.7-.8-9.3-1-14 0-1.1-3.3-.4-3.3.9.2 5.7 1 11.5 1 17.3zm31.5-6.2c-.2-.7-1.2-.7-1.9-.6v-.8c-.1-2.2-.1-4.5-.3-6.8-.2-2.1-1.3-2.8-3.3-2.7-2 .1-4.4.4-6.3 1.2a5.9 5.9 0 00-3.8 4.8c-.5 2.5.2 5.2.3 7.8.1 3 .1 5.9.1 8.9 0 .5 3.3 0 3.3-.9v-7c0-.7 0-1.4-.1-2.1 1.2-.5 3.1 0 4.3.1.9.1 1.8-.1 2.7-.2 0 1.9.1 3.9.2 5.9 0 1 .4 3-.3 3.8-.4.4 1.2.3 1.3.3.7-.1 1.5-.3 1.9-.9.8-.9.4-3.2.3-4.3-.1-1.6-.1-3.2-.1-4.8.8-.4 1.9-1 1.7-1.7zm-6.6-.2c-1.9 0-3.8-.3-5.7 0l-.3-3.2c-.1-2 .1-4.7 1.9-5.9.5-.3 1.4-.3 2-.4.8-.1 1.6-.3 2.4.2 1 .7.8 3.1.8 4.1 0 1.7.2 3.4.3 5.1-.5.1-1 .1-1.4.1zm-60.2-11.3c0 .2 0 .4.1.5v.4c.1.2.2.3.4.4.3.2.7.2 1.1.2.4 0 .9-.2 1.2-.4l.2-.2c.4-.3.8-.7.6-1.1-.4-.9-.4-1.9-.3-2.9 0-.8-.8-1.1-1.5-1-.6.1-1.8.5-1.8 1.3s-.1 1.7.1 2.5c-.1.1-.1.2-.1.3zm61.5 29.2c-1.6-.6-3.3-.6-4.9-.8l-4.9-.6c-1.6.1-3.3 0-5 .1l-4.9.3c-6.5.3-13 .3-19.5.1-6.5-.1-13-.5-19.6-.5-3.3 0-6.6.1-9.9.3-1.6.3-3.2.5-4.9.9-1.6.4-3.1.9-4.8 1 1.6.4 3.3.3 5 .3 1.6 0 3.2.1 4.9.2 3.2-.2 6.5-.2 9.7-.3 6.5 0 13 .3 19.6.5 6.5.1 13.1.2 19.7-.1l4.9-.3c1.6-.1 3.2-.1 4.8-.1 1.6-.1 3.3-.3 4.9-.5 1.7-.2 3.2-.6 4.9-.5h.1v-.6c0 .4 0 .5-.1.6z"/></svg><svg viewBox="0 0 114 46" id="logo-tablet" xmlns="http://www.w3.org/2000/svg"><path d="M110.89 41.8c4.42.9.8-35.81.1-38.2-2.01-6.6-26.84-2.1-32.37-1.7-12.77 1-25.34-1-37.8-.4-6.24.3-35.09-1.8-37.7 2C-1.91 10.67.4 29.23 1.8 38.51c-4.02.8 2.31 4.19 3.12 4.89 6.33 2.19 16.48-.2 23.12.4 15.48 1.5 31.97-2.2 47.55-1 4.53 1.1 9.65 1 14.28 1.2 3.52 5.58 19.8-2.4 21-2.2-.1 0 .51.1 0 0z"/><path d="M26.24 24.35c-.1-2.5-.5-5.1-.5-7.59 0-2.1.4-4.19-.3-6.18 0-.2.1-.4.1-.7.2-1-3.12-.5-3.62.4-.3.3-.5.6-.4.9 0 .1.1.2.1.2-.6 2.99-1.51 5.98-2.52 8.88-.4 1.1-.8 2.2-1.2 3.39-.6-1-1.11-2.1-1.61-3.2-1.31-3.29-2.52-6.58-4.13-9.67.2-1.5-3.01-1.3-3.71 0-.8 1.6-.7 3.19-.4 4.89.3 1.9.3 3.79.4 5.78 0 3.8.3 7.49.4 11.28-.3.4-.4.8-.1 1.3.2.2.3.4.5.5.9.7 3.32.1 3.32-1.2 0-3.9-.3-7.79-.4-11.68v-1.1c.1.1.1.3.2.4.6 1.5 1.2 3 2.1 4.4.81 1.4 1.21 2.89 1.72 4.39-.2.2-.3.4-.2.7 0 .2.1.3.2.3.6.5 1.7.3 2.4 0 .31-.1.51-.2.81-.4.3-.2.8-.6.7-1.1 0-.1-.1-.2-.1-.3.4-1.2.71-2.5.91-3.7a25 25 0 011.2-3.89c0 .6.1 1.2.1 1.8.2 2.4 0 4.79 0 7.18 0 .8.1 1.5.2 2.3.11.3.31 1.7.31 1.8-.6.5-.4 1.2.4 1.4.9.2 2.01-.1 2.62-.7 1.1-1 .6-2.7.3-4-.3-2 .3-4.49.2-6.78zm7.94.7c-.1-1.9-.7-3.7-.7-5.6 0-2.19.2-4.38-.1-6.48-.1-.7-3.82.1-3.72 1 .3 2 .2 4 .2 5.99 0 1.9.4 3.69.7 5.58.3 2-.1 3.9.1 5.9.1.89.7 2.59.1 3.38-.4.5 1.41.3 1.51.3.7-.1 1.71-.4 2.21-1 .6-.8.2-2.29.1-3.19-.5-1.9-.3-3.99-.4-5.88zm15.58-3.2c-2-2.6-5.63-.7-8.14-1.5-1.3-.4-1.3-2.19-1.3-3.19 0-1.4-.1-2.6-.3-3.89-.1-1 0-2 .7-2.8.1-.1.8-.3.8-.3.3-.1.6-.1 1-.1 1.51-.1 4.43.2 3.83 2.4-.3 1 3.41.4 3.72-.6 1.2-4.39-6.94-3.49-9.25-2.89-2.11.6-4.43 1.8-4.53 4.2-.1 1.19.3 2.29.3 3.38.1 1.3-.2 2.6.3 3.9 1.01 2.79 5.23 1.5 7.45 1.7 3.61.3 2.6 5.18 2.6 7.48.01 1.2 1.12 3.29.21 4.29-.6.6-1.91.7-2.61.7-.8.1-2.11.3-2.62-.4-.9-1.3.1-3.6-.1-5.1-.1-.9-3.92-.1-3.72 1 .3 2.5-1.3 5.8 2.31 6.3 2.32.3 4.93-.2 7.14-.9 1.1-.4 2.21-.9 3.12-1.7 1-.9.7-2.2.4-3.4-.8-2.99.5-6.18-1.3-8.58zm16.59-.2c-.1-3.59-.7-7.08-.7-10.67 0-1.9-3.82-1.2-3.82.3 0 3.39.5 6.78.6 10.17v.2c-1.8 0-3.72.2-5.63.2.2-4.39-.6-8.78-.4-13.07 0-.6-3.72-.1-3.72 1-.2 4.19.6 8.48.4 12.67-.1 2-.2 4-.2 6.09 0 1 .2 2.1.3 3.1.1.89.5 2.19.2 3.09-.2.7 3.42.3 3.72-.7.5-1.7-.2-3.8-.4-5.5-.2-1.59 0-3.28.1-4.98 1.91-.1 3.92-.3 5.83 0l.3 3.9c.1 1.09.2 2.19.2 3.28 0 1 .1 2.4-.2 3.3-.7 2 3.02 1.8 3.52.3.7-1.8.5-4 .4-5.8-.1-2.19-.5-4.58-.5-6.88zm16.09 4.29c-.9-2.59-2.31-4.89-3.42-7.38 1-1.9 1.91-3.7 2.81-5.59.8-1.7 1.41-3.59 2.92-4.79.5-.4.5-.8-.2-.9-.8-.1-2.01.2-2.61.7a9.51 9.51 0 00-3.02 4.1c-.9 1.89-1.81 3.89-2.82 5.78-.1.1-.1.3-.2.4-.5.3-.7.7-.6 1.2-.8 1.5-1.5 3-2.41 4.39-.3-5.29-.9-10.48-1.1-15.77 0-1.2-3.83-.5-3.73 1 .2 6.49 1.2 12.97 1.2 19.46-.3.3-.2.5.1.6 0 1.7-.1 3.29-.2 4.99-.4.7.41 1.1 1.01 1.1h.1c.7 0 2.52-.3 2.62-1.3.2-2 .2-4 .2-5.99a28.4 28.4 0 003.82-5.29c.7 1.4 1.4 2.8 1.9 4.3.81 2.59 2.22 4.98 3.02 7.58.5 1.7 4.23.7 3.72-1-.9-2.6-2.2-5-3.11-7.59zm22.42-4.39c-.2-.8-1.31-.8-2.22-.7v-1c-.1-2.49-.2-5.08-.4-7.58-.2-2.3-1.5-3.19-3.82-3.09-2.31.1-5.02.5-7.14 1.3a6.5 6.5 0 00-4.32 5.39c-.5 2.89.2 5.88.4 8.78.1 3.29.1 6.68.1 9.98 0 .5 3.72 0 3.72-1v-7.89c0-.8 0-1.5-.1-2.29 1.31-.6 3.52 0 4.83.1 1.1.1 2.11-.2 3.12-.3 0 2.2.1 4.39.2 6.59 0 1.1.5 3.39-.3 4.29-.4.5 1.4.3 1.5.3.8-.1 1.71-.4 2.21-1 .91-1.1.4-3.6.4-4.9-.1-1.79-.1-3.58-.1-5.38.91-.1 2.12-.8 1.92-1.6zm-13.88-.2l-.3-3.59c-.2-2.2.1-5.29 2.21-6.58.6-.4 1.61-.3 2.22-.4.9-.2 1.9-.4 2.71.2 1.1.8.9 3.49.9 4.59 0 1.9.2 3.79.3 5.68-.5.1-1.1.1-1.6.1-2.21-.1-4.43-.4-6.44 0zM30.96 10.38c.5 0 1.01-.2 1.41-.5.1-.1.2-.1.2-.2.5-.3.9-.8.7-1.3-.5-1-.4-2.1-.4-3.2 0-.89-.9-1.19-1.7-1.09-.7.1-2.12.6-2.12 1.4 0 .9-.1 1.9.1 2.8 0 .1-.1.2-.1.3-.1.2 0 .4.1.6v.39c.1.2.2.4.4.5.51.3 1.01.3 1.41.3z" fill="#fff"/></svg></svg>